<svg width="24" height="24" viewBox="0 0 24 24" fill="none" xmlns="http://www.w3.org/2000/svg">
<path d="M14.1863 13.3502C15.2184 13.6895 16.1672 14.2677 16.9498 15.0503C18.0781 16.1786 18.5283 17.5258 19 19M14.1863 13.3502C15.2784 12.636 16 11.4023 16 10C16 7.79086 14.2092 6 12 6C9.79088 6 8.00002 7.79086 8.00002 10C8.00002 11.4023 8.7216 12.636 9.8137 13.3502M14.1863 13.3502C13.5579 13.7611 12.8069 14 12 14C11.1932 14 10.4421 13.7611 9.8137 13.3502M9.8137 13.3502C8.78166 13.6895 7.83286 14.2677 7.05027 15.0503C5.9219 16.1786 5.47168 17.5258 5 19M19 19H20V3H4V19H5M19 19H14L12 21L10 19H5" stroke="black" stroke-width="2" stroke-linecap="round" stroke-linejoin="round"/>
</svg>
